Coordinates
version=1
nRows=8
nColumns=40
inDegrees=yes

Units are S.I. units (second, meters, Newtons, ...)
If the header above contains a line with 'inDegrees', this indicates whether rotational values are in degrees (yes) or radians (no).

endheader
time	pelvis_tilt	pelvis_list	pelvis_rotation	pelvis_tx	pelvis_ty	pelvis_tz	hip_flexion_r	hip_adduction_r	hip_rotation_r	knee_angle_r	knee_angle_r_beta	ankle_angle_r	subtalar_angle_r	mtp_angle_r	hip_flexion_l	hip_adduction_l	hip_rotation_l	knee_angle_l	knee_angle_l_beta	ankle_angle_l	subtalar_angle_l	mtp_angle_l	lumbar_extension	lumbar_bending	lumbar_rotation	arm_flex_r	arm_add_r	arm_rot_r	elbow_flex_r	pro_sup_r	wrist_flex_r	wrist_dev_r	arm_flex_l	arm_add_l	arm_rot_l	elbow_flex_l	pro_sup_l	wrist_flex_l	wrist_dev_l
      2.48000000	     -6.39389049	     26.91672128	    -86.71611713	      1.22081057	      0.61366472	      0.13131684	     92.05058806	     -7.16424120	     -4.84343996	     97.45480476	      1.70090721	     25.40204720	    -20.09692613	      0.00000000	     94.49014834	     -9.65211471	      3.98042351	    100.27030696	      1.75004700	     29.26316446	     -7.42097634	      0.00000000	    -31.25337010	      7.55859291	      1.58086327	     44.99992431	    -14.99999999	     44.99992431	     75.00017585	     45.00000026	      0.00000000	      0.00000000	     44.99992431	    -14.99999999	     44.99992431	     75.00017585	     45.00000026	      0.00000000	      0.00000000
      2.48500000	     -6.44384113	     26.93744148	    -86.64655078	      1.22095004	      0.61342033	      0.13145478	     92.07911642	     -7.22452645	     -4.88815738	     97.50292257	      1.70174703	     25.41061439	    -20.14567493	      0.00000000	     94.54366713	     -9.58841202	      4.03402154	    100.31350007	      1.75080086	     29.27644449	     -7.41362892	      0.00000000	    -31.13544451	      7.58077323	      1.44437980	     44.99992431	    -14.99999999	     44.99992431	     75.00017585	     45.00000026	      0.00000000	      0.00000000	     44.99992431	    -14.99999999	     44.99992431	     75.00017585	     45.00000026	      0.00000000	      0.00000000
      2.49000000	     -6.38906606	     26.93377163	    -86.69443977	      1.22084596	      0.61331670	      0.13160752	     92.08906425	     -7.21259994	     -4.84897792	     97.53394281	      1.70228843	     25.44106798	    -20.08345686	      0.00000000	     94.52603666	     -9.61963937	      3.98688579	    100.34216224	      1.75130111	     29.30715152	     -7.43868089	      0.00000000	    -31.07790780	      7.54710639	      1.47837325	     44.99992431	    -14.99999999	     44.99992431	     75.00017585	     45.00000026	      0.00000000	      0.00000000	     44.99992431	    -14.99999999	     44.99992431	     75.00017585	     45.00000026	      0.00000000	      0.00000000
      2.49500000	     -6.92126227	     27.02328394	    -86.12020064	      1.22209259	      0.61271046	      0.13173728	     92.08727493	     -7.65728898	     -5.35939041	     97.57853856	      1.70306678	     25.58279319	    -19.90484453	      0.00000000	     94.85003892	     -9.17691313	      4.48580925	    100.43967983	      1.75300311	     29.19248648	     -7.54449202	      0.00000000	    -30.77846985	      8.09571672	      0.83101208	     44.99992431	    -14.99999999	     44.99992431	     75.00017585	     45.00000026	      0.00000000	      0.00000000	     44.99992431	    -14.99999999	     44.99992431	     75.00017585	     45.00000026	      0.00000000	      0.00000000
      2.50000000	     -6.35721819	     26.96388694	    -86.71340651	      1.22079454	      0.61296625	      0.13188422	     92.14985883	     -7.21366197	     -4.80952898	     97.61305719	      1.70366924	     25.48229281	    -20.11389279	      0.00000000	     94.56579614	     -9.62434748	      3.96889793	    100.40983053	      1.75248214	     29.34168042	     -7.41759437	      0.00000000	    -30.87210907	      7.46650269	      1.31074736	     44.99992431	    -14.99999999	     44.99992431	     75.00017585	     45.00000026	      0.00000000	      0.00000000	     44.99992431	    -14.99999999	     44.99992431	     75.00017585	     45.00000026	      0.00000000	      0.00000000
      2.50500000	     -6.73162634	     27.02729295	    -86.24565756	      1.22181886	      0.61257342	      0.13203915	     92.12816325	     -7.59926578	     -5.15517351	     97.64756163	      1.70427146	     25.61694830	    -19.90696379	      0.00000000	     94.77950851	     -9.22504132	      4.32396976	    100.45038190	      1.75318990	     29.29089216	     -7.51458851	      0.00000000	    -30.64664610	      7.92712074	      0.88207633	     44.99992431	    -14.99999999	     44.99992431	     75.00017585	     45.00000026	      0.00000000	      0.00000000	     44.99992431	    -14.99999999	     44.99992431	     75.00017585	     45.00000026	      0.00000000	      0.00000000
      2.51000000	     -6.32247400	     27.00720129	    -86.71873107	      1.22077587	      0.61261421	      0.13215636	     92.21928854	     -7.24156230	     -4.77518706	     97.68820351	      1.70498079	     25.53359078	    -20.06441227	      0.00000000	     94.61325048	     -9.60038876	      3.95487088	    100.46857704	      1.75350746	     29.37523904	     -7.41459293	      0.00000000	    -30.64876226	      7.47793038	      1.28238777	     44.99992432	    -14.99999999	     44.99992432	     75.00017585	     45.00000026	      0.00000000	      0.00000000	     44.99992432	    -14.99999999	     44.99992432	     75.00017585	     45.00000026	      0.00000000	      0.00000000
      2.51500000	     -6.95678043	     27.09237307	    -86.17378221	      1.22178162	      0.61211745	      0.13233704	     92.16622483	     -7.56813171	     -5.38951226	     97.69443464	      1.70508955	     25.72239891	    -19.83160545	      0.00000000	     94.95981674	     -9.25504809	      4.57767700	    100.55906994	      1.75508686	     29.26086906	     -7.52749646	      0.00000000	    -30.36192436	      8.01000046	      0.63544249	     44.99992432	    -14.99999999	     44.99992432	     75.00017585	     45.00000026	      0.00000000	      0.00000000	     44.99992432	    -14.99999999	     44.99992432	     75.00017585	     45.00000026	      0.00000000	      0.00000000
